# xmcd CD database file
# Generated: Fri Jan 11 14:39:03 2008 by KSCD
# 
# Track frame offsets:
#       150
#       13505
#       27865
#       45665
#       60202
#       71797
#       88320
#       100092
#       113250
#       131182
#       144050
#       158287
#       180552
#       190282
#       216310
#       227532
#       261522
#       276092
#       289217
#       308715
#
# Disc length: 4322 seconds
#
# Revision: 9
# Processed by: cddbd v1.5.2PL0 Copyright (c) Steve Scherf et al.
# Submitted via: Kscd 1.3.3
#
DISCID=1110e014
DTITLE=Various Artist - A Century of Blues [CD3]
DYEAR=2001
DGENRE=Blues
TTITLE0=John Lee Hooker - Come Back Baby
TTITLE1=Muddy Waters - Hoochie Coochie Man
TTITLE2=Memphis Slim - How Long
TTITLE3=Sonny Terry and Brownie McGhee - Baby, Please Don't Go
TTITLE4=George 'Harmonica' Smith - My Babe
TTITLE5=Mississippi Fred McDowell - Jesus Is on the Mainline
TTITLE6=Floyd Dixon - Tired, Broke and Busted
TTITLE7=Jimmy Rogers - Bad Luck Blues
TTITLE8=Freddie King - Reconsider Baby
TTITLE9=The Animals - Dimples
TTITLE10=Manfred Mann - Got My Mojo Working
TTITLE11=Canned Heat - On the Road Again
TTITLE12=Alexis Korner - I'm Tore Down
TTITLE13=The Groundhogs - Groundhog Blues
TTITLE14=Jeff Beck - You Shook Me
TTITLE15=Ten Years After - Love Like a Man
TTITLE16=Johnny Winter - She Likes to Boogie Real Low
TTITLE17=Dr Feelgood - Roxette
TTITLE18=George Thorogood and the Destroyers - Who Do You Love?
TTITLE19=Johnny Winter - Johnny Guitar
EXTD=
EXTT0=
EXTT1=
EXTT2=
EXTT3=
EXTT4=
EXTT5=
EXTT6=
EXTT7=
EXTT8=
EXTT9=
EXTT10=
EXTT11=
EXTT12=
EXTT13=
EXTT14=
EXTT15=
EXTT16=
EXTT17=
EXTT18=
EXTT19=
PLAYORDER=
